<?xml version="1.0" encoding="UTF-8" standalone="no"?>
<!-- Created with Inkscape (http://www.inkscape.org/) -->

<svg
   xmlns:dc="http://purl.org/dc/elements/1.1/"
   xmlns:cc="http://creativecommons.org/ns#"
   xmlns:rdf="http://www.w3.org/1999/02/22-rdf-syntax-ns#"
   xmlns:svg="http://www.w3.org/2000/svg"
   xmlns="http://www.w3.org/2000/svg"
   xmlns:sodipodi="http://sodipodi.sourceforge.net/DTD/sodipodi-0.dtd"
   xmlns:inkscape="http://www.inkscape.org/namespaces/inkscape"
   width="17"
   height="24"
   viewBox="0 0 4.4979169 6.3499998"
   version="1.1"
   id="svg6259"
   inkscape:version="0.92.0 r"
   sodipodi:docname="scoop_shadow.svg">
  <defs
     id="defs6253" />
  <sodipodi:namedview
     id="base"
     pagecolor="#ffffff"
     bordercolor="#666666"
     borderopacity="1.0"
     inkscape:pageopacity="0.0"
     inkscape:pageshadow="2"
     inkscape:zoom="31.678384"
     inkscape:cx="-4.6707089"
     inkscape:cy="12.433967"
     inkscape:document-units="mm"
     inkscape:current-layer="g8560"
     showgrid="true"
     fit-margin-top="0"
     fit-margin-left="0"
     fit-margin-right="0"
     fit-margin-bottom="0"
     inkscape:snap-bbox="true"
     inkscape:bbox-nodes="true"
     inkscape:window-width="2554"
     inkscape:window-height="1029"
     inkscape:window-x="0"
     inkscape:window-y="22"
     inkscape:window-maximized="0"
     units="px">
    <inkscape:grid
       type="xygrid"
       id="grid7949"
       originx="0"
       originy="1.3229136" />
  </sodipodi:namedview>
  <metadata
     id="metadata6256">
    <rdf:RDF>
      <cc:Work
         rdf:about="">
        <dc:format>image/svg+xml</dc:format>
        <dc:type
           rdf:resource="http://purl.org/dc/dcmitype/StillImage" />
        <dc:title />
      </cc:Work>
    </rdf:RDF>
  </metadata>
  <g
     inkscape:groupmode="layer"
     id="layer2"
     inkscape:label="pixelated"
     style="display:none">
    <rect
       style="display:inline;fill:#000000;fill-opacity:0.04743084;stroke-width:0.26458332"
       id="rect10854-54-8-7-7-3"
       width="0.26458356"
       height="0.26458299"
       x="0.26458061"
       y="2.910414" />
    <rect
       style="display:inline;fill:#000000;fill-opacity:0.04743084;stroke-width:0.26458332"
       id="rect10854-54-8-7-7-6"
       width="0.26458356"
       height="0.26458299"
       x="0.52916396"
       y="2.910414" />
    <rect
       style="display:inline;fill:#000000;fill-opacity:0.04743084;stroke-width:0.26458332"
       id="rect10854-54-8-7-7-7"
       width="0.26458356"
       height="0.26458299"
       x="0.52916396"
       y="3.1749973" />
    <rect
       style="display:inline;fill:#000000;fill-opacity:0.04743084;stroke-width:0.26458332"
       id="rect10854-54-8-7-7-5"
       width="0.26458356"
       height="0.26458299"
       x="0.52916396"
       y="3.4395807" />
    <rect
       style="display:inline;fill:#000000;fill-opacity:0.04743084;stroke-width:0.26458332"
       id="rect10854-54-8-7-7-35"
       width="0.26458356"
       height="0.26458299"
       x="0.79374725"
       y="3.4395807" />
    <rect
       style="display:inline;fill:#000000;fill-opacity:0.04743084;stroke-width:0.26458332"
       id="rect10854-54-8-7-7-62"
       width="0.26458356"
       height="0.26458299"
       x="0.79374725"
       y="3.704164" />
    <rect
       style="display:inline;fill:#000000;fill-opacity:0.04743084;stroke-width:0.26458332"
       id="rect10854-54-8-7-7-9"
       width="0.26458356"
       height="0.26458299"
       x="1.0583307"
       y="3.704164" />
    <rect
       style="display:inline;fill:#000000;fill-opacity:0.04743084;stroke-width:0.26458332"
       id="rect10854-54-8-7-7-1"
       width="0.26458356"
       height="0.26458299"
       x="1.3229139"
       y="3.704164" />
    <rect
       style="display:inline;fill:#000000;fill-opacity:0.04743084;stroke-width:0.26458332"
       id="rect10854-54-8-7-7-2"
       width="0.26458356"
       height="0.26458299"
       x="1.5874972"
       y="3.704164" />
    <rect
       style="display:inline;fill:#000000;fill-opacity:0.04743084;stroke-width:0.26458332"
       id="rect10854-54-8-7-7-70"
       width="0.26458356"
       height="0.26458299"
       x="1.5874972"
       y="3.9687474" />
    <rect
       style="display:inline;fill:#000000;fill-opacity:0.04743084;stroke-width:0.26458332"
       id="rect10854-54-8-7-7-7-9"
       width="0.26458356"
       height="0.26458299"
       x="0.26458064"
       y="2.6458306" />
    <rect
       style="display:inline;fill:#000000;fill-opacity:0.04743084;stroke-width:0.26458332"
       id="rect10854-54-8-7-7-7-3"
       width="0.26458356"
       height="0.26458299"
       x="0.79374731"
       y="3.1749973" />
    <rect
       style="display:inline;fill:#000000;fill-opacity:0.04743084;stroke-width:0.26458332"
       id="rect10854-54-8-7-7-7-6"
       width="0.26458356"
       height="0.26458299"
       x="1.0583307"
       y="3.4395807" />
    <rect
       style="display:inline;fill:#000000;fill-opacity:0.04743084;stroke-width:0.26458332"
       id="rect10854-54-8-7-7-7-0"
       width="0.26458356"
       height="0.26458299"
       x="-2.69875e-06"
       y="2.3812473" />
    <rect
       style="display:inline;fill:#000000;fill-opacity:0.04743084;stroke-width:0.26458332"
       id="rect10854-54-8-7-7-7-62"
       width="0.26458356"
       height="0.26458299"
       x="-2.69875e-06"
       y="2.1166639" />
    <rect
       style="display:inline;fill:#000000;fill-opacity:0.04743084;stroke-width:0.26458332"
       id="rect10854-54-8-7-7-7-61"
       width="0.26458356"
       height="0.26458299"
       x="0.26458064"
       y="2.3812473" />
    <rect
       style="display:inline;fill:#000000;fill-opacity:0.04743084;stroke-width:0.26458332"
       id="rect10854-54-8-7-7-7-8"
       width="0.26458356"
       height="0.26458299"
       x="0.52916396"
       y="2.6458306" />
    <rect
       style="display:inline;fill:#000000;fill-opacity:0.04743084;stroke-width:0.26458332"
       id="rect10854-54-8-7-7-7-37"
       width="0.26458356"
       height="0.26458299"
       x="0.26458064"
       y="1.322914" />
    <rect
       style="display:inline;fill:#000000;fill-opacity:0.04743084;stroke-width:0.26458332"
       id="rect10854-54-8-7-7-7-5"
       width="0.26458356"
       height="0.26458299"
       x="0.26458064"
       y="1.0583307" />
    <rect
       style="display:inline;fill:#000000;fill-opacity:0.04743084;stroke-width:0.26458332"
       id="rect10854-54-8-7-7-7-922"
       width="0.26458356"
       height="0.26458299"
       x="0.52916396"
       y="0.79374737" />
    <rect
       style="display:inline;fill:#000000;fill-opacity:0.04743084;stroke-width:0.26458332"
       id="rect10854-54-8-7-7-7-89"
       width="0.26458356"
       height="0.26458299"
       x="0.79374731"
       y="0.52916402" />
    <rect
       style="display:inline;fill:#000000;fill-opacity:0.04743084;stroke-width:0.26458332"
       id="rect10854-54-8-7-7-7-73"
       width="0.26458356"
       height="0.26458299"
       x="2.3812473"
       y="3.9687474" />
    <rect
       style="display:inline;fill:#000000;fill-opacity:0.04743084;stroke-width:0.26458332"
       id="rect10854-54-8-7-7-7-612"
       width="0.26458356"
       height="0.26458299"
       x="2.6458306"
       y="3.9687474" />
    <rect
       style="display:inline;fill:#000000;fill-opacity:0.04743084;stroke-width:0.26458332"
       id="rect10854-54-8-7-7-7-93"
       width="0.26458356"
       height="0.26458299"
       x="2.6458306"
       y="4.2333307" />
    <rect
       style="display:inline;fill:#000000;fill-opacity:0.04743084;stroke-width:0.26458332"
       id="rect10854-54-8-7-7-7-1"
       width="0.26458356"
       height="0.26458299"
       x="2.6458306"
       y="4.4979138" />
    <rect
       style="display:inline;fill:#000000;fill-opacity:0.04743084;stroke-width:0.26458332"
       id="rect10854-54-8-7-7-7-94"
       width="0.26458356"
       height="0.26458299"
       x="2.6458306"
       y="4.7624974" />
    <rect
       style="display:inline;fill:#000000;fill-opacity:0.04743084;stroke-width:0.26458332"
       id="rect10854-54-8-7-7-7-78"
       width="0.26458356"
       height="0.26458299"
       x="2.3812473"
       y="3.704164" />
    <rect
       style="display:inline;fill:#000000;fill-opacity:0.04743084;stroke-width:0.26458332"
       id="rect10854-54-8-7-7-7-50"
       width="0.26458356"
       height="0.26458299"
       x="1.8520806"
       y="3.9687474" />
    <rect
       style="display:inline;fill:#000000;fill-opacity:0.04743084;stroke-width:0.26458332"
       id="rect10854-54-8-7-7-7-36"
       width="0.26458356"
       height="0.26458299"
       x="2.6458306"
       y="0.52916402" />
    <rect
       style="display:inline;fill:#000000;fill-opacity:0.04743084;stroke-width:0.26458332"
       id="rect10854-54-8-7-7-7-10"
       width="0.26458356"
       height="0.26458299"
       x="2.910414"
       y="0.79374737" />
    <rect
       style="display:inline;fill:#000000;fill-opacity:0.04743084;stroke-width:0.26458332"
       id="rect10854-54-8-7-7-7-63"
       width="0.26458356"
       height="0.26458299"
       x="3.1749973"
       y="1.0583307" />
    <rect
       style="display:inline;fill:#000000;fill-opacity:0.04743084;stroke-width:0.26458332"
       id="rect10854-54-8-7-7-7-2"
       width="0.26458356"
       height="0.26458299"
       x="3.1749973"
       y="1.322914" />
    <rect
       style="display:inline;fill:#000000;fill-opacity:0.04743084;stroke-width:0.26458332"
       id="rect10854-54-8-7-7-7-06"
       width="0.26458356"
       height="0.26458299"
       x="2.6458306"
       y="0.79374737" />
    <rect
       style="display:inline;fill:#000000;fill-opacity:0.04743084;stroke-width:0.26458332"
       id="rect10854-54-8-7-7-7-15"
       width="0.26458356"
       height="0.26458299"
       x="2.910414"
       y="1.0583307" />
    <rect
       style="display:inline;fill:#000000;fill-opacity:0.04743084;stroke-width:0.26458332"
       id="rect10854-54-8-7-7-7-54"
       width="0.26458356"
       height="0.26458299"
       x="2.3812473"
       y="0.52916402" />
    <rect
       style="display:inline;fill:#000000;fill-opacity:0.04743084;stroke-width:0.26458332"
       id="rect10854-54-8-7-7-7-7"
       width="0.26458356"
       height="0.26458299"
       x="1.322914"
       y="1.322914" />
    <rect
       style="display:inline;fill:#000000;fill-opacity:0.04743084;stroke-width:0.26458332"
       id="rect10854-54-8-7-7-7-65"
       width="0.26458356"
       height="0.26458299"
       x="1.322914"
       y="1.5874974" />
    <rect
       style="display:inline;fill:#000000;fill-opacity:0.04743084;stroke-width:0.26458332"
       id="rect10854-54-8-7-7-7-69"
       width="0.26458356"
       height="0.26458299"
       x="1.0583307"
       y="1.5874974" />
    <rect
       style="display:inline;fill:#000000;fill-opacity:0.04743084;stroke-width:0.26458332"
       id="rect10854-54-8-7-7-7-374"
       width="0.26458356"
       height="0.26458299"
       x="1.0583307"
       y="1.8520807" />
    <rect
       style="display:inline;fill:#000000;fill-opacity:0.04743084;stroke-width:0.26458332"
       id="rect10854-54-8-7-7-7-52"
       width="0.26458356"
       height="0.26458299"
       x="1.0583307"
       y="2.1166639" />
    <rect
       style="display:inline;fill:#000000;fill-opacity:0.04743084;stroke-width:0.26458332"
       id="rect10854-54-8-7-7-7-547"
       width="0.26458356"
       height="0.26458299"
       x="1.322914"
       y="2.1166639" />
    <rect
       style="display:inline;fill:#000000;fill-opacity:0.04743084;stroke-width:0.26458332"
       id="rect10854-54-8-7-7-7-4"
       width="0.26458356"
       height="0.26458299"
       x="1.5874974"
       y="2.3812473" />
    <rect
       style="display:inline;fill:#000000;fill-opacity:0.04743084;stroke-width:0.26458332"
       id="rect10854-54-8-7-7-7-43"
       width="0.26458356"
       height="0.26458299"
       x="1.8520806"
       y="2.3812473" />
    <rect
       style="display:inline;fill:#000000;fill-opacity:0.04743084;stroke-width:0.26458332"
       id="rect10854-54-8-7-7-7-07"
       width="0.26458356"
       height="0.26458299"
       x="1.322914"
       y="2.3812473" />
    <rect
       style="display:inline;fill:#000000;fill-opacity:0.04743084;stroke-width:0.26458332"
       id="rect10854-54-8-7-7-7-86"
       width="0.26458356"
       height="0.26458299"
       x="1.8520806"
       y="2.6458306" />
    <rect
       style="display:inline;fill:#000000;fill-opacity:0.04743084;stroke-width:0.26458332"
       id="rect10854-54-8-7-7-7-88"
       width="0.26458356"
       height="0.26458299"
       x="1.322914"
       y="1.8520807" />
    <rect
       style="display:inline;fill:#000000;fill-opacity:0.04743084;stroke-width:0.26458332"
       id="rect10854-54-8-7-7-7-431"
       width="0.26458356"
       height="0.26458299"
       x="2.1166639"
       y="2.6458306" />
    <rect
       style="display:inline;fill:#000000;fill-opacity:0.04743084;stroke-width:0.26458332"
       id="rect10854-54-8-7-7-7-49"
       width="0.26458356"
       height="0.26458299"
       x="1.5874974"
       y="2.6458306" />
    <rect
       style="display:inline;fill:#000000;fill-opacity:0.04743084;stroke-width:0.26458332"
       id="rect10854-54-8-7-7-7-20"
       width="0.26458356"
       height="0.26458299"
       x="1.5874974"
       y="2.1166639" />
    <rect
       style="display:inline;fill:#000000;fill-opacity:0.04743084;stroke-width:0.26458332"
       id="rect10854-54-8-7-7-7-68"
       width="0.26458356"
       height="0.26458299"
       x="3.9687474"
       y="2.910414" />
    <rect
       style="display:inline;fill:#000000;fill-opacity:0.04743084;stroke-width:0.26458332"
       id="rect10854-54-8-7-7-7-92"
       width="0.26458356"
       height="0.26458299"
       x="3.704164"
       y="3.1749973" />
    <rect
       style="display:inline;fill:#000000;fill-opacity:0.04743084;stroke-width:0.26458332"
       id="rect10854-54-8-7-7-7-66"
       width="0.26458356"
       height="0.26458299"
       x="3.704164"
       y="2.910414" />
    <rect
       style="display:inline;fill:#000000;fill-opacity:0.04743084;stroke-width:0.26458332"
       id="rect10854-54-8-7-7-7-495"
       width="0.26458356"
       height="0.26458299"
       x="3.704164"
       y="3.4395807" />
    <rect
       style="display:inline;fill:#000000;fill-opacity:0.04743084;stroke-width:0.26458332"
       id="rect10854-54-8-7-7-7-04"
       width="0.26458356"
       height="0.26458299"
       x="3.4395807"
       y="3.4395807" />
    <rect
       style="display:inline;fill:#000000;fill-opacity:0.04743084;stroke-width:0.26458332"
       id="rect10854-54-8-7-7-7-87"
       width="0.26458356"
       height="0.26458299"
       x="3.4395807"
       y="3.704164" />
    <rect
       style="display:inline;fill:#000000;fill-opacity:0.04743084;stroke-width:0.26458332"
       id="rect10854-54-8-7-7-7-17"
       width="0.26458356"
       height="0.26458299"
       x="3.9687474"
       y="2.6458306" />
  </g>
  <g
     transform="translate(-74.858185,-109.27812)"
     id="g8560"
     inkscape:groupmode="layer"
     inkscape:label="flattened"
     style="display:inline">
    <path
       style="display:inline;fill:#000000;fill-opacity:0.04743084;stroke-width:0.99999994"
       d="M 3 2 L 3 3 L 4 3 L 4 2 L 3 2 z M 3 3 L 2 3 L 2 4 L 3 4 L 3 3 z M 2 4 L 1 4 L 1 5 L 1 6 L 2 6 L 2 5 L 2 4 z M 9 2 L 9 3 L 10 3 L 10 4 L 11 4 L 11 5 L 12 5 L 12 6 L 13 6 L 13 5 L 13 4 L 12 4 L 12 3 L 11 3 L 11 2 L 10 2 L 9 2 z M 5 5 L 5 6 L 4 6 L 4 7 L 4 8 L 4 9 L 5 9 L 5 10 L 6 10 L 6 11 L 7 11 L 8 11 L 9 11 L 9 10 L 8 10 L 8 9 L 7 9 L 7 8 L 6 8 L 6 7 L 6 6 L 6 5 L 5 5 z M 0 8 L 0 9 L 0 10 L 1 10 L 1 11 L 1 12 L 2 12 L 2 13 L 2 14 L 3 14 L 3 15 L 4 15 L 5 15 L 6 15 L 6 16 L 7 16 L 8 16 L 8 15 L 7 15 L 7 14 L 6 14 L 5 14 L 5 13 L 4 13 L 4 12 L 3 12 L 3 11 L 3 10 L 2 10 L 2 9 L 1 9 L 1 8 L 0 8 z M 15 10 L 15 11 L 14 11 L 14 12 L 14 13 L 13 13 L 13 14 L 13 15 L 14 15 L 14 14 L 15 14 L 15 13 L 15 12 L 16 12 L 16 11 L 16 10 L 15 10 z M 9 14 L 9 15 L 9 16 L 10 16 L 10 17 L 10 18 L 10 19 L 11 19 L 11 18 L 11 17 L 11 16 L 11 15 L 10 15 L 10 14 L 9 14 z "
       transform="matrix(0.26458333,0,0,0.26458333,74.858185,109.27812)"
       id="rect10854-54-8-7-7-3-1" />
  </g>
</svg>
