<?xml version="1.0" encoding="UTF-8" standalone="no"?>
<svg
   xmlns:dc="http://purl.org/dc/elements/1.1/"
   xmlns:cc="http://creativecommons.org/ns#"
   xmlns:rdf="http://www.w3.org/1999/02/22-rdf-syntax-ns#"
   xmlns:svg="http://www.w3.org/2000/svg"
   xmlns="http://www.w3.org/2000/svg"
   version="1.1"
   viewBox="0 0 4.4979166 6.3500001"
   height="24"
   width="17">
  <g
     transform="translate(-99.8991,-143.99525)">
    <path
       transform="matrix(0.26458333,0,0,0.26458333,99.899101,143.99525)"
       d="M 6,0 V 1 H 7 V 0 Z m 5,1 v 1 h 1 V 1 Z M 8,3 V 4 H 9 V 3 Z M 3,4 V 5 H 4 V 4 Z m 11,1 v 1 h 1 V 5 Z M 1,7 V 8 H 2 V 7 Z M 6,7 V 8 H 7 V 7 Z m 5,1 v 1 h 1 V 8 Z m 2,1 v 1 h 1 V 9 Z m -9,1 v 1 h 1 v -1 z m 3,1 v 1 h 1 v -1 z m -4,1 v 1 h 1 v -1 z m 9,0 v 1 h 1 v -1 z m -1,3 v 1 h 1 v -1 z" />
  </g>
</svg>
