<?xml version="1.0" encoding="UTF-8" standalone="no"?>
<svg
   xmlns:dc="http://purl.org/dc/elements/1.1/"
   xmlns:cc="http://creativecommons.org/ns#"
   xmlns:rdf="http://www.w3.org/1999/02/22-rdf-syntax-ns#"
   xmlns:svg="http://www.w3.org/2000/svg"
   xmlns="http://www.w3.org/2000/svg"
   version="1.1"
   viewBox="0 0 5.5562499 4.4979168"
   height="17"
   width="21">
  <path
     transform="scale(0.26458333)"
     d="M 0,0 V 1 H 1 V 2 3 4 H 0 V 5 H 1 2 3 V 4 H 2 V 3 2 1 H 3 V 0 H 2 1 Z M 4,0 V 1 2 3 4 5 H 5 6 7 V 4 H 6 5 V 3 2 1 H 6 7 V 0 H 6 5 Z m 4,0 v 1 1 1 1 1 h 1 1 1 V 4 H 10 9 V 3 h 1 V 2 H 9 V 1 h 1 1 V 0 H 10 9 Z"
     style="color:#000000;clip-rule:nonzero;display:inline;overflow:visible;visibility:visible;opacity:1;isolation:auto;mix-blend-mode:normal;color-interpolation:sRGB;color-interpolation-filters:linearRGB;solid-color:#000000;solid-opacity:1;fill:#9bbaec;fill-opacity:1;fill-rule:nonzero;stroke:none;stroke-width:0.60000002;stroke-linecap:square;stroke-linejoin:miter;stroke-miterlimit:4;stroke-dasharray:none;stroke-dashoffset:0;stroke-opacity:1;color-rendering:auto;image-rendering:auto;shape-rendering:auto;text-rendering:auto;enable-background:accumulate" />
  <path
     transform="scale(0.26458333)"
     d="m 0,6 v 1 1 1 1 1 H 1 2 3 V 10 H 2 1 V 9 8 7 H 2 3 V 6 H 2 1 Z m 4,0 v 1 1 1 1 1 H 5 V 10 H 6 V 9 H 5 V 8 7 H 6 V 8 9 H 7 V 8 7 6 H 6 5 Z m 2,4 v 1 H 7 V 10 Z M 8,6 v 1 1 1 1 1 h 1 1 1 V 10 H 10 9 V 9 h 1 V 8 H 9 V 7 h 1 1 V 6 H 10 9 Z m 4,0 v 1 1 1 1 1 h 1 V 10 9 h 1 v 1 1 h 1 V 10 9 8 7 6 h -1 -1 z m 4,0 v 1 1 1 1 1 h 1 V 10 9 8 7 h 1 v 1 1 1 h 1 V 9 8 7 h 1 v 1 1 1 1 h 1 V 10 9 8 7 6 h -1 -1 -1 -1 z m -3,1 h 1 v 1 h -1 z"
     style="color:#000000;clip-rule:nonzero;display:inline;overflow:visible;visibility:visible;opacity:1;isolation:auto;mix-blend-mode:normal;color-interpolation:sRGB;color-interpolation-filters:linearRGB;solid-color:#000000;solid-opacity:1;fill:#e3d9bd;fill-opacity:1;fill-rule:nonzero;stroke:none;stroke-width:0.60000008;stroke-linecap:square;stroke-linejoin:miter;stroke-miterlimit:4;stroke-dasharray:none;stroke-dashoffset:0;stroke-opacity:1;color-rendering:auto;image-rendering:auto;shape-rendering:auto;text-rendering:auto;enable-background:accumulate" />
  <path
     transform="scale(0.26458333)"
     d="m 0,12 v 1 1 1 1 1 H 1 2 3 V 16 15 H 2 v 1 H 1 V 15 H 2 V 14 H 1 v -1 h 1 v 1 H 3 V 13 12 H 2 1 Z m 4,0 v 1 1 1 h 1 v 1 1 H 6 V 16 15 H 7 V 14 13 12 H 6 v 1 1 H 5 v -1 -1 z m 4,0 v 1 h 1 v 1 1 1 1 h 1 v -1 -1 -1 -1 h 1 V 12 H 10 9 Z m 4,0 v 1 1 1 1 1 h 1 1 1 v -1 h -1 -1 v -1 h 1 v -1 h -1 v -1 h 1 1 v -1 h -1 -1 z m 4,0 v 1 1 1 h 1 1 v 1 h -1 -1 v 1 h 1 1 1 v -1 -1 -1 h -1 -1 v -1 h 1 1 v -1 h -1 -1 z"
     style="color:#000000;clip-rule:nonzero;display:inline;overflow:visible;visibility:visible;opacity:1;isolation:auto;mix-blend-mode:normal;color-interpolation:sRGB;color-interpolation-filters:linearRGB;solid-color:#000000;solid-opacity:1;fill:#e4b4cd;fill-opacity:1;fill-rule:nonzero;stroke:none;stroke-width:0.60000008;stroke-linecap:square;stroke-linejoin:miter;stroke-miterlimit:4;stroke-dasharray:none;stroke-dashoffset:0;stroke-opacity:1;color-rendering:auto;image-rendering:auto;shape-rendering:auto;text-rendering:auto;enable-background:accumulate" />
</svg>
